<?xml version="1.0" encoding="utf-8" ?>
<svg baseProfile="full" height="100%" version="1.1" viewBox="0,0,1000,180" width="100%" xmlns="http://www.w3.org/2000/svg" xmlns:ev="http://www.w3.org/2001/xml-events" xmlns:xlink="http://www.w3.org/1999/xlink"><defs /><rect fill="white" height="180" width="1000" x="0" y="0" /><path d="M0,0 M177.52151489257812,56.23591613769531 L177.28082275390625,55.86053466796875 L176.83319091796875,55.32672119140625 L176.1678466796875,54.782405853271484 L175.33590698242188,54.46211624145508 L174.31610107421875,54.453529357910156 L173.13433837890625,54.81890106201172 L171.8173065185547,55.573455810546875 L170.42282104492188,56.720947265625 L169.05838012695312,58.22391891479492 L167.85745239257812,60.01077651977539 L166.92001342773438,61.96046829223633 L166.3362579345703,63.9404296875 L166.1492462158203,65.82362365722656 L166.357177734375,67.50377655029297 L166.9657440185547,68.90444946289062 L167.96795654296875,69.97693634033203 L169.33285522460938,70.67300415039062 L170.99276733398438,70.94522094726562 L172.86236572265625,70.75686645507812 L174.81704711914062,70.10340881347656 L176.74630737304688,69.00739288330078 L178.54428100585938,67.54605102539062 L180.12696838378906,65.83602905273438 L181.4044189453125,64.01007080078125 L182.3054656982422,62.18825912475586 L182.75042724609375,60.464576721191406 L182.69569396972656,58.88758087158203 L182.15093994140625,57.4959716796875 L181.20028686523438,56.320186614990234 L179.95114135742188,55.3769645690918 L178.54678344726562,54.679622650146484 L177.1185760498047,54.244873046875 L175.80606079101562,54.069602966308594 L174.7365264892578,54.13259506225586 L174.03395080566406,54.30562210083008 L173.68002319335938,54.47132110595703 M189.70608520507812,50.157562255859375 L189.6613311767578,50.469722747802734 L189.6019287109375,51.17198181152344 L189.544677734375,52.348541259765625 L189.50502014160156,53.96091079711914 L189.46856689453125,55.91242980957031 L189.41668701171875,58.081092834472656 L189.36752319335938,60.341957092285156 L189.33309936523438,62.588539123535156 L189.3504638671875,64.71820068359375 L189.43374633789062,66.63077545166016 L189.57662963867188,68.24297332763672 L189.75439453125,69.45103454589844 L189.93589782714844,70.18977355957031 L190.07904052734375,70.46257019042969 L190.17022705078125,70.43684387207031 L190.20880126953125,70.29472351074219 M186.73153686523438,62.237857818603516 L186.89927673339844,62.143089294433594 L187.34376525878906,62.005008697509766 L188.15567016601562,61.846805572509766 L189.3650360107422,61.70530319213867 L190.927001953125,61.57102966308594 L192.71292114257812,61.43230438232422 L194.56851196289062,61.27145004272461 L196.3505859375,61.08422088623047 L197.92721557617188,60.87942123413086 L199.2198028564453,60.680381774902344 L200.18771362304688,60.51181411743164 L200.79971313476562,60.39125061035156 L201.03268432617188,60.343780517578125 L200.8987274169922,60.422969818115234 L200.40753173828125,60.70417785644531 L199.5910186767578,61.27539825439453 L198.55636596679688,62.17380142211914 L197.45591735839844,63.346702575683594 L196.4794921875,64.68687438964844 L195.83360290527344,66.0593032836914 L195.64901733398438,67.31547546386719 L195.9957275390625,68.3376693725586 L196.8978271484375,69.02433776855469 L198.307373046875,69.28883361816406 L200.12387084960938,69.09898376464844 L202.18527221679688,68.4703598022461 L204.27377319335938,67.47537994384766 L206.12774658203125,66.22746276855469 L207.52651977539062,64.86825561523438 L208.32301330566406,63.52391815185547 L208.48138427734375,62.29290771484375 L208.062744140625,61.236324310302734 L207.21316528320312,60.399169921875 L206.08108520507812,59.79391098022461 L204.83468627929688,59.40324401855469 L203.69094848632812,59.19271469116211 L202.83929443359375,59.10761642456055 L202.4089813232422,59.103721618652344 L202.32113647460938,59.13422775268555 L202.41082763671875,59.170448303222656 M227.86550903320312,50.78498077392578 L227.755859375,51.22816467285156 L227.59564208984375,52.14764404296875 L227.40786743164062,53.58198928833008 L227.22509765625,55.42281723022461 L227.01759338378906,57.55631637573242 L226.75836181640625,59.881195068359375 L226.433349609375,62.292057037353516 L226.08224487304688,64.67324829101562 L225.76080322265625,66.84512329101562 L225.5184326171875,68.62831115722656 L225.35830688476562,69.8978271484375 L225.2766571044922,70.61920928955078 L225.26638793945312,70.7967758178711 L225.34097290039062,70.46492767333984 L225.56747436523438,69.64071655273438 L226.03594970703125,68.37335205078125 L226.80349731445312,66.78742980957031 L227.88369750976562,65.05931854248047 L229.2421417236328,63.36811447143555 L230.79702758789062,61.879981994628906 L232.46119689941406,60.72784423828125 L234.15660095214844,60.01877212524414 L235.78614807128906,59.821449279785156 L237.24365234375,60.158809661865234 L238.45693969726562,60.99750900268555 L239.38272094726562,62.25965118408203 L239.9864501953125,63.82670593261719 L240.28416442871094,65.55803680419922 L240.33853149414062,67.2536849975586 L240.2364501953125,68.73226928710938 L240.09957885742188,69.7685317993164 L240.009521484375,70.32608032226562 M248.98797607421875,62.69816970825195 L248.88108825683594,62.54684066772461 L248.63906860351562,62.364585876464844 L248.19522094726562,62.28844451904297 L247.51608276367188,62.50489044189453 L246.60427856445312,63.11780548095703 L245.547607421875,64.13661193847656 L244.51333618164062,65.44172668457031 L243.67710876464844,66.8480224609375 L243.16943359375,68.1744155883789 L243.07098388671875,69.26246643066406 L243.40794372558594,70.00616455078125 L244.181884765625,70.33836364746094 L245.34909057617188,70.20172119140625 L246.80096435546875,69.58081817626953 L248.3786163330078,68.5286865234375 L249.89813232421875,67.15303039550781 L251.191650390625,65.6184310913086 L252.17141723632812,64.11427307128906 L252.8042449951172,62.80282974243164 L253.12557983398438,61.789310455322266 L253.23928833007812,61.13129806518555 L253.2311248779297,60.852142333984375 L253.1631317138672,60.955509185791016 L253.0771026611328,61.46015167236328 L252.97134399414062,62.354881286621094 L252.8772735595703,63.552886962890625 L252.869140625,64.90863800048828 L253.00045776367188,66.25032043457031 L253.32235717773438,67.40852355957031 L253.85171508789062,68.27115631103516 L254.55615234375,68.7699203491211 L255.42477416992188,68.86689758300781 L256.43096923828125,68.54634857177734 L257.5185852050781,67.84184265136719 L258.6408996582031,66.83533477783203 L259.71612548828125,65.63653564453125 L260.64752197265625,64.38558197021484 L261.3798828125,63.22846221923828 L261.887939453125,62.28120803833008 L262.1834716796875,61.60009002685547 L262.3245849609375,61.21377944946289 L262.3684387207031,61.120994567871094 L262.3416442871094,61.356773376464844 L262.2500305175781,61.971839904785156 L262.1075744628906,62.99739074707031 L261.9286804199219,64.33059692382812 L261.753662109375,65.80401611328125 L261.6424255371094,67.2174072265625 L261.61334228515625,68.40907287597656 L261.65234375,69.2894515991211 L261.7198486328125,69.83357238769531 L261.77264404296875,70.08653259277344 M261.54901123046875,52.59339141845703 L261.55499267578125,52.455745697021484 L261.58868408203125,52.32359313964844 L261.6355285644531,52.23529815673828 L261.68096923828125,52.22922897338867 M269.41644287109375,49.95064163208008 L269.4217529296875,50.100425720214844 L269.4354553222656,50.55141067504883 L269.429443359375,51.425636291503906 L269.35675048828125,52.75421905517578 L269.1890869140625,54.47080993652344 L268.9472351074219,56.476314544677734 L268.68304443359375,58.66820526123047 L268.4625244140625,60.924224853515625 L268.3226013183594,63.10643005371094 L268.2705383300781,65.0918960571289 L268.2901611328125,66.77338409423828 L268.3572082519531,68.07878112792969 L268.43878173828125,68.9882583618164 L268.5207214355469,69.49581146240234 L268.620361328125,69.59712982177734 L268.77581787109375,69.29937744140625 L269.0146179199219,68.59272003173828 L269.37060546875,67.49990844726562 L269.85479736328125,66.10260009765625 L270.50238037109375,64.52855682373047 L271.3375244140625,62.91350173950195 L272.3533935546875,61.385162353515625 L273.48907470703125,60.03378677368164 L274.64306640625,58.92998504638672 L275.67584228515625,58.12181091308594 L276.5032958984375,57.61094284057617 L277.07421875,57.354576110839844 L277.3764953613281,57.2967529296875 L277.40167236328125,57.39094543457031 L277.1185302734375,57.61983108520508 L276.4920654296875,57.991546630859375 L275.53863525390625,58.4943962097168 L274.326904296875,59.10260009765625 L272.970458984375,59.78409194946289 L271.60107421875,60.50162124633789 L270.3350830078125,61.22874069213867 L269.2794189453125,61.94078063964844 L268.5196228027344,62.619163513183594 L268.10198974609375,63.26291275024414 L268.0394287109375,63.88572692871094 L268.329345703125,64.4920425415039 L268.96142578125,65.07666015625 L269.92510986328125,65.60382080078125 L271.205810546875,66.02392578125 L272.7474365234375,66.28956604003906 L274.4718017578125,66.37144470214844 L276.2864685058594,66.27328491210938 L278.09100341796875,66.01420593261719 L279.78826904296875,65.61255645751953 L281.32232666015625,65.05480194091797 L282.6539001464844,64.31265258789062 L283.76812744140625,63.36952590942383 L284.65966796875,62.2685661315918 L285.33087158203125,61.098690032958984 L285.77734375,59.98869323730469 L286.0313720703125,59.05095291137695 L286.14776611328125,58.341346740722656 L286.1729736328125,57.8735466003418 L286.14715576171875,57.669803619384766 L286.08984375,57.770267486572266 L285.97528076171875,58.24517822265625 L285.8038330078125,59.14203643798828 L285.612548828125,60.38743209838867 L285.4534606933594,61.809730529785156 L285.4149169921875,63.21059036254883 L285.55615234375,64.40271759033203 L285.87969970703125,65.26891326904297 L286.3856201171875,65.74810791015625 L287.08782958984375,65.79103088378906 L288.0021667480469,65.3709716796875 L289.12786865234375,64.52301788330078 L290.3985595703125,63.34275436401367 L291.6875,61.97999954223633 L292.84356689453125,60.618927001953125 L293.76947021484375,59.427833557128906 L294.42352294921875,58.508262634277344 L294.8148193359375,57.92060852050781 L294.97283935546875,57.69409942626953 L294.9710693359375,57.853702545166016 L294.8517150878906,58.443424224853516 L294.6542053222656,59.459190368652344 L294.42364501953125,60.801734924316406 L294.2047119140625,62.30118942260742 L294.070556640625,63.76425552368164 L294.13836669921875,65.04158782958984 L294.44854736328125,66.05986022949219 L294.8370361328125,66.73660278320312 L295.163818359375,67.0936508178711 M318.48583984375,58.88938522338867 L318.31353759765625,58.585784912109375 L317.9715576171875,58.15513229370117 L317.41986083984375,57.72932052612305 L316.65020751953125,57.51426315307617 L315.644775390625,57.609153747558594 L314.40631103515625,58.0821647644043 L312.98797607421875,58.931800842285156 L311.5439453125,60.12042236328125 L310.2481689453125,61.548789978027344 L309.28668212890625,63.0804443359375 L308.7943420410156,64.55777740478516 L308.84027099609375,65.84078216552734 L309.4505615234375,66.80772399902344 L310.61407470703125,67.37220001220703 L312.25274658203125,67.48958587646484 L314.25726318359375,67.16093444824219 L316.4367370605469,66.41473388671875 L318.58135986328125,65.31768798828125 L320.47314453125,63.96435546875 L321.92596435546875,62.47316360473633 L322.79461669921875,60.974342346191406 L323.0216979980469,59.59318161010742 L322.605224609375,58.420528411865234 L321.61334228515625,57.519569396972656 L320.20965576171875,56.921634674072266 L318.6512145996094,56.618919372558594 L317.3695068359375,56.5251579284668 L316.5833740234375,56.54106140136719 M337.6177978515625,56.83774185180664 L337.6064453125,57.104820251464844 L337.5645751953125,57.69989776611328 L337.47894287109375,58.67793655395508 L337.35546875,59.96946716308594 L337.242431640625,61.450767517089844 L337.2074279785156,62.948890686035156 L337.30364990234375,64.29244232177734 L337.58758544921875,65.34502410888672 L338.0790710449219,65.98831176757812 L338.7900390625,66.12959289550781 L339.71063232421875,65.74036407470703 L340.78863525390625,64.83686828613281 L341.9471130371094,63.54932403564453 L343.0908508300781,62.10456085205078 L344.0860595703125,60.736289978027344 L344.86053466796875,59.612361907958984 L345.36065673828125,58.82634735107422 L345.6156921386719,58.39291763305664 L345.7135314941406,58.336891174316406 L345.73992919921875,58.70646286010742 L345.7430114746094,59.53209686279297 L345.7958984375,60.749595642089844 L345.9266662597656,62.18135452270508 L346.18505859375,63.59426498413086 L346.6078186035156,64.7713851928711 L347.20355224609375,65.5744400024414 L347.95977783203125,65.95614624023438 L348.85565185546875,65.89208221435547 L349.8284606933594,65.3668212890625 L350.81292724609375,64.40272521972656 L351.7411804199219,63.08271789550781 L352.5381774902344,61.551124572753906 L353.1610107421875,59.98833084106445 L353.58331298828125,58.54615783691406 L353.808837890625,57.339317321777344 L353.8809814453125,56.45323181152344 L353.8601379394531,55.93098449707031 L353.7860107421875,55.75062561035156 L353.7125549316406,55.78071975708008 L353.66131591796875,55.88071060180664 M359.8946533203125,57.4277229309082 L359.791259765625,57.870750427246094 L359.6480712890625,58.68232345581055 L359.47833251953125,59.82771682739258 L359.30426025390625,61.148101806640625 L359.0890808105469,62.55073165893555 L358.8321533203125,63.93141555786133 L358.5592041015625,65.21936798095703 L358.35589599609375,66.26874542236328 L358.2801513671875,66.92941284179688 L358.3550720214844,67.11407470703125 L358.4931640625,66.98738098144531 L358.6199645996094,66.75016021728516 M361.618408203125,51.44148635864258 L361.609619140625,51.078651428222656 L361.64556884765625,50.658355712890625 L361.708740234375,50.314125061035156 L361.7815856933594,50.179481506347656 M372.4459533691406,57.72883605957031 L372.3310546875,57.55553436279297 L372.01300048828125,57.3116340637207 L371.40362548828125,57.08369827270508 L370.4696960449219,56.99744415283203 L369.2642822265625,57.10566711425781 L367.939697265625,57.41191864013672 L366.69512939453125,57.87308883666992 L365.724365234375,58.456703186035156 L365.213134765625,59.12437057495117 L365.2799987792969,59.8574104309082 L365.9638671875,60.63789367675781 L367.18670654296875,61.44899368286133 L368.7684326171875,62.287776947021484 L370.47113037109375,63.16883850097656 L372.0722961425781,64.0774917602539 L373.4044189453125,64.98375701904297 L374.35491943359375,65.82645416259766 L374.85321044921875,66.54131317138672 L374.84320068359375,67.09839630126953 L374.30157470703125,67.48894500732422 L373.25091552734375,67.7206039428711 L371.76043701171875,67.7967529296875 L369.9691162109375,67.73487091064453 L368.0680847167969,67.53054809570312 L366.26556396484375,67.20580291748047 L364.7596740722656,66.79225158691406 L363.74908447265625,66.42082977294922 L363.22833251953125,66.16546630859375 M379.3138122558594,57.09362030029297 L379.3861083984375,57.110347747802734 L379.471435546875,57.25048065185547 L379.507568359375,57.61179733276367 L379.419189453125,58.26810073852539 L379.1735534667969,59.209625244140625 L378.8065185546875,60.38660430908203 L378.4052734375,61.70732879638672 L378.0533752441406,63.05827331542969 L377.800048828125,64.31282806396484 L377.651611328125,65.36676788330078 L377.57305908203125,66.1385498046875 L377.5267333984375,66.57994842529297 L377.5187683105469,66.66626739501953 L377.5788269042969,66.36299133300781 L377.74755859375,65.65325164794922 L378.05914306640625,64.56734466552734 L378.54541015625,63.205970764160156 L379.2196044921875,61.70820999145508 L380.1046142578125,60.23916244506836 L381.2106018066406,58.9200439453125 L382.5137634277344,57.856109619140625 L383.94012451171875,57.113887786865234 L385.4189453125,56.750118255615234 L386.88311767578125,56.78477478027344 L388.25775146484375,57.21553039550781 L389.49127197265625,57.9832878112793 L390.51556396484375,59.026187896728516 L391.2584228515625,60.26752471923828 L391.6911315917969,61.627830505371094 L391.8568115234375,63.0282096862793 L391.81903076171875,64.38591766357422 L391.6927490234375,65.56953430175781 L391.57049560546875,66.47167205810547 L391.5143737792969,67.02822875976562 L391.5145263671875,67.27645111083984 L391.54681396484375,67.32823944091797 M396.9400939941406,59.28174591064453 L396.99114990234375,59.40388107299805 L397.0838623046875,59.7238883972168 L397.19537353515625,60.32034683227539 L397.2801513671875,61.193965911865234 L397.31475830078125,62.27632522583008 L397.30718994140625,63.4533576965332 L397.29595947265625,64.61417388916016 L397.30780029296875,65.59873962402344 L397.3462219238281,66.29308319091797 L397.3936767578125,66.62730407714844 L397.4313049316406,66.68952178955078 L397.4500427246094,66.61335754394531 M397.3523864746094,51.38636779785156 L397.3832702636719,51.36622619628906 L397.4365234375,51.344478607177734 L397.4927978515625,51.32785415649414 L397.53265380859375,51.323081970214844 M407.3920593261719,59.821659088134766 L407.0694580078125,59.74703598022461 L406.4931640625,59.73976516723633 L405.644775390625,59.922386169433594 L404.5987243652344,60.416221618652344 L403.4049987792969,61.244625091552734 L402.20556640625,62.344757080078125 L401.1714172363281,63.59364700317383 L400.4930725097656,64.83493041992188 L400.2832946777344,65.9189453125 L400.5828857421875,66.72088623046875 L401.36163330078125,67.1663589477539 L402.55462646484375,67.20063781738281 L404.0607604980469,66.80614471435547 L405.7441101074219,65.99066925048828 L407.461669921875,64.82572937011719 L409.0538330078125,63.43503189086914 L410.36529541015625,62.01202392578125 L411.31640625,60.76408386230469 L411.8941650390625,59.82194137573242 L412.1436767578125,59.24916458129883 L412.1650695800781,59.05751419067383 L412.04083251953125,59.23040008544922 L411.82342529296875,59.7679328918457 L411.599609375,60.662559509277344 L411.44439697265625,61.799232482910156 L411.4428405761719,63.04450988769531 L411.6590881347656,64.26236724853516 L412.1822814941406,65.32249450683594 L413.0224609375,66.13861083984375 L414.1477966308594,66.66817474365234 L415.19830322265625,66.9246826171875 L415.93572998046875,66.99364471435547 M422.7010803222656,59.642730712890625 L422.340087890625,59.53776168823242 L421.68536376953125,59.50063705444336 L420.74371337890625,59.66442108154297 L419.6400451660156,60.152225494384766 L418.4746398925781,60.95748519897461 L417.3970947265625,62.013736724853516 L416.5715026855469,63.22338104248047 L416.1455383300781,64.48439025878906 L416.2103271484375,65.6832504272461 L416.816162109375,66.69920349121094 L417.9532165527344,67.42158508300781 L419.59942626953125,67.70426177978516 L421.6136779785156,67.50285339355469 L423.7519226074219,66.8772201538086 L425.48455810546875,66.16158294677734 L426.5524597167969,65.61428833007812 M429.42742919921875,49.664772033691406 L429.5191650390625,49.71195983886719 L429.679931640625,49.99842834472656 L429.8678894042969,50.68303680419922 L429.9971618652344,51.84641647338867 L429.9903564453125,53.41813659667969 L429.81304931640625,55.24930191040039 L429.4869384765625,57.18599319458008 L429.1044921875,59.07078170776367 L428.76849365234375,60.76463317871094 L428.5601806640625,62.15470886230469 L428.50567626953125,63.185550689697266 L428.5914306640625,63.82199478149414 L428.77972412109375,64.0694351196289 L429.0721130371094,63.915164947509766 L429.50775146484375,63.35135269165039 L430.1357727050781,62.41996383666992 L430.9898681640625,61.25993728637695 L432.0706481933594,60.03572082519531 L433.3271179199219,58.918731689453125 L434.6997985839844,58.035030364990234 L436.12548828125,57.45137023925781 L437.54644775390625,57.20927047729492 L438.90191650390625,57.3266487121582 L440.1141357421875,57.80717086791992 L441.1072998046875,58.622806549072266 L441.803955078125,59.71406936645508 L442.1701965332031,60.972957611083984 L442.26202392578125,62.28213119506836 L442.1861572265625,63.4836540222168 L442.059814453125,64.46586608886719 L441.9730529785156,65.11538696289062 L441.93902587890625,65.44526672363281 M453.2336120605469,55.86894226074219 L453.2718505859375,55.85462188720703 L453.3082275390625,55.860740661621094 L453.2945251464844,55.90608215332031 L453.17236328125,56.039581298828125 L452.90478515625,56.275238037109375 L452.5462341308594,56.61436462402344 L452.224853515625,56.940704345703125 L452.01385498046875,57.178062438964844 M451.2082214355469,64.60816192626953 L451.20196533203125,64.63668060302734 L451.2291259765625,64.68170928955078 L451.29071044921875,64.73616027832031 L451.3630676269531,64.76449584960938 L451.3902282714844,64.74231719970703 L451.34393310546875,64.66669464111328 L451.2568054199219,64.5750961303711 L451.1791076660156,64.50083923339844 M471.11669921875,53.46961212158203 L470.865966796875,53.27617263793945 L470.38592529296875,53.0394172668457 L469.6434631347656,52.868865966796875 L468.6214599609375,52.90966796875 L467.271728515625,53.214576721191406 L465.5918273925781,53.80876922607422 L463.6571960449219,54.683372497558594 L461.6195983886719,55.8306999206543 L459.6976623535156,57.212520599365234 L458.0579833984375,58.75553894042969 L456.8494873046875,60.36474609375 L456.1371154785156,61.94064712524414 L455.9393005371094,63.39619827270508 L456.25286865234375,64.66567993164062 L457.0735168457031,65.70906066894531 L458.36187744140625,66.48079681396484 L460.06689453125,66.95357513427734 L462.08624267578125,67.12451171875 L464.2825927734375,67.01419830322266 L466.5334167480469,66.6583251953125 L468.7106628417969,66.11273193359375 L470.7013854980469,65.42281341552734 L472.42144775390625,64.65072631835938 L473.82080078125,63.854881286621094 L474.8931884765625,63.100250244140625 L475.68963623046875,62.426631927490234 L476.3035583496094,61.86793899536133 L476.83392333984375,61.4405403137207 L477.3784484863281,61.164432525634766 L478.02020263671875,61.039100646972656 L478.80401611328125,61.07380676269531 L479.7459411621094,61.248348236083984 L480.8450012207031,61.5346565246582 L482.0544738769531,61.86887741088867 L483.2926025390625,62.18962860107422 L484.5072021484375,62.43764114379883 L485.6297302246094,62.5706787109375 L486.63323974609375,62.546165466308594 L487.4891052246094,62.35235595703125 L488.1498107910156,61.96931838989258 L488.55401611328125,61.42946243286133 L488.66265869140625,60.79098892211914 L488.4184265136719,60.12691879272461 L487.7847595214844,59.5173454284668 L486.7309875488281,59.069847106933594 L485.2475891113281,58.87003707885742 L483.4209289550781,59.00128173828125 L481.40423583984375,59.479095458984375 L479.38714599609375,60.26320266723633 L477.5643005371094,61.27054977416992 L476.1009216308594,62.394832611083984 L475.1024169921875,63.5162467956543 L474.6751708984375,64.51729583740234 L474.8700256347656,65.28443145751953 L475.68133544921875,65.74232482910156 L477.040771484375,65.86690521240234 L478.8145751953125,65.6656494140625 L480.8304138183594,65.19864654541016 L482.9391784667969,64.53166198730469 L484.9888916015625,63.750999450683594 L486.8639831542969,62.955387115478516 L488.4621887207031,62.25238800048828 L489.6987609863281,61.70104217529297 L490.54949951171875,61.35995864868164 L491.0467529296875,61.226707458496094 L491.2594299316406,61.312313079833984 L491.2854309082031,61.64613342285156 L491.197509765625,62.27469253540039 L491.0224304199219,63.210472106933594 L490.77398681640625,64.4397964477539 L490.44927978515625,65.86880493164062 L490.05047607421875,67.40744018554688 L489.5802001953125,68.95092010498047 L489.044677734375,70.41475677490234 L488.4388732910156,71.73953247070312 L487.750244140625,72.86580657958984 L486.97686767578125,73.73645782470703 L486.1021728515625,74.32337951660156 L485.13555908203125,74.59461212158203 L484.11871337890625,74.54950714111328 L483.1347961425781,74.20783233642578 L482.26824951171875,73.59989929199219 L481.61114501953125,72.76420593261719 L481.1988220214844,71.74650573730469 L481.0596008300781,70.59393310546875 L481.2032775878906,69.36433410644531 L481.6579284667969,68.10237884521484 L482.4234313964844,66.86698913574219 L483.50384521484375,65.6982650756836 L484.8520202636719,64.64662170410156 L486.39178466796875,63.75413513183594 L488.04718017578125,63.07704544067383 L489.7554626464844,62.63102722167969 L491.46746826171875,62.42144775390625 L493.15423583984375,62.41905212402344 L494.7776184082031,62.59439468383789 L496.2872619628906,62.897010803222656 L497.6502380371094,63.30264663696289 L498.836669921875,63.75032043457031 L499.8502197265625,64.1788101196289 L500.6971740722656,64.5263442993164 L501.4089660644531,64.73091888427734 L502.0229797363281,64.7405014038086 L502.56805419921875,64.52146911621094 L503.02984619140625,64.05457305908203 L503.3788757324219,63.35602569580078 L503.5660095214844,62.48468017578125 L503.5547790527344,61.50595474243164 L503.3235778808594,60.509239196777344 L502.8694152832031,59.56260681152344 L502.16265869140625,58.73762512207031 L501.2005310058594,58.09072494506836 L500.013671875,57.68608474731445 L498.6604309082031,57.56426239013672 L497.2369689941406,57.75431823730469 L495.8838195800781,58.25971221923828 L494.71282958984375,59.05924606323242 L493.8501281738281,60.080078125 L493.3796691894531,61.24625015258789 L493.34014892578125,62.459693908691406 L493.73724365234375,63.6212272644043 L494.55902099609375,64.6653823852539 L495.7430114746094,65.533447265625 L497.2544250488281,66.1661605834961 L499.00201416015625,66.54182434082031 L500.9063415527344,66.63892364501953 L502.86285400390625,66.45709991455078 L504.77325439453125,66.01832580566406 L506.5333251953125,65.33696746826172 L508.0977783203125,64.43050384521484 L509.4092712402344,63.34784698486328 L510.46514892578125,62.1541748046875 L511.2388916015625,60.94219207763672 L511.7526550292969,59.81547164916992 L512.0272216796875,58.84743118286133 L512.1343994140625,58.07700729370117 L512.1358642578125,57.523983001708984 L512.0946044921875,57.218624114990234 L511.9983215332031,57.1959114074707 L511.8273620605469,57.514747619628906 L511.5220947265625,58.205726623535156 L511.0848693847656,59.237911224365234 L510.5497741699219,60.521026611328125 L510.0088806152344,61.9322395324707 L509.5552062988281,63.315269470214844 L509.24249267578125,64.53230285644531 L509.0799560546875,65.49492645263672 L509.0420227050781,66.14979553222656 L509.07806396484375,66.48085021972656 L509.1749267578125,66.47989654541016 L509.34967041015625,66.12456512451172 L509.6134033203125,65.40369415283203 L509.990966796875,64.37964630126953 L510.4759216308594,63.159385681152344 L511.05828857421875,61.87847900390625 L511.73724365234375,60.64921188354492 L512.4915771484375,59.53084945678711 L513.31494140625,58.56300735473633 L514.201416015625,57.78813934326172 L515.12841796875,57.23345184326172 L516.0635986328125,56.921897888183594 L516.9791259765625,56.855472564697266 L517.81201171875,57.00104904174805 L518.52978515625,57.32828903198242 L519.1131591796875,57.80019760131836 L519.5453491210938,58.38084411621094 L519.8135986328125,59.04146194458008 L519.9498291015625,59.7735710144043 L519.9800415039062,60.56078338623047 L519.954345703125,61.39095687866211 L519.91796875,62.234344482421875 L519.9227294921875,63.04597473144531 L520.008056640625,63.759605407714844 L520.2388916015625,64.31988525390625 L520.677978515625,64.66822814941406 L521.3711547851562,64.75611114501953 L522.3055419921875,64.54336547851562 L523.43310546875,64.0207290649414 L524.6494140625,63.21619415283203 L525.8558959960938,62.19237518310547 L526.9785766601562,61.041290283203125 L527.9669189453125,59.85053634643555 L528.778564453125,58.7164192199707 L529.3828125,57.744449615478516 L529.7681274414062,57.00668716430664 L529.9541625976562,56.54792404174805 L529.9791870117188,56.400047302246094 L529.8710327148438,56.56365966796875 L529.6376953125,57.05930709838867 L529.2836303710938,57.895530700683594 L528.863037109375,59.006195068359375 L528.464599609375,60.28490447998047 L528.20849609375,61.594207763671875 L528.1873779296875,62.7769775390625 L528.44970703125,63.715572357177734 L529.0001220703125,64.32427215576172 L529.828369140625,64.54395294189453 L530.8917236328125,64.36300659179688 L532.1395263671875,63.80622863769531 L533.48095703125,62.91206359863281 L534.7771606445312,61.74759292602539 L535.8916625976562,60.4005241394043 L536.71435546875,58.9791145324707 L537.209228515625,57.609474182128906 L537.4067993164062,56.4046516418457 L537.3944702148438,55.430294036865234 L537.2545166015625,54.735355377197266 L537.069580078125,54.36635971069336 L536.8826904296875,54.32863235473633 L536.7445068359375,54.585567474365234 L536.6613159179688,54.94210433959961 L536.6290283203125,55.23048400878906 M546.253173828125,56.26316452026367 L546.0626220703125,56.011817932128906 L545.7269287109375,55.72760009765625 L545.227294921875,55.56162643432617 L544.57666015625,55.708011627197266 L543.7578125,56.214683532714844 L542.7987670898438,57.08528137207031 L541.8238525390625,58.25562286376953 L540.9979858398438,59.63714599609375 L540.4632568359375,61.08857345581055 L540.3240356445312,62.46766662597656 L540.6253662109375,63.632362365722656 L541.3473510742188,64.47068786621094 L542.4739379882812,64.90483093261719 L543.9322509765625,64.87847137451172 L545.6080932617188,64.38941955566406 L547.347412109375,63.4888916015625 L548.9686279296875,62.272979736328125 L550.2811889648438,60.84962844848633 L551.1726684570312,59.34954833984375 L551.5682373046875,57.90474319458008 L551.4955444335938,56.63650131225586 L551.022216796875,55.64501953125 L550.233642578125,55.010948181152344 L549.23388671875,54.77920150756836 L548.1921997070312,54.939544677734375 L547.2496337890625,55.420143127441406 L546.5860595703125,55.95491027832031 L546.2403564453125,56.3538932800293 M556.0650634765625,54.793251037597656 L556.0770263671875,54.935546875 L556.0362548828125,55.308799743652344 L555.8810424804688,56.005130767822266 L555.5614013671875,57.01620101928711 L555.0902099609375,58.26911926269531 L554.538818359375,59.641090393066406 L554.0018310546875,60.995094299316406 L553.570068359375,62.19910430908203 L553.2794189453125,63.175777435302734 L553.1361083984375,63.842071533203125 L553.13232421875,64.14653015136719 L553.271728515625,64.04456329345703 L553.593505859375,63.5114860534668 L554.1077880859375,62.55998611450195 L554.7786865234375,61.29931640625 L555.5750732421875,59.86155319213867 L556.4722900390625,58.399147033691406 L557.4647827148438,57.037635803222656 L558.5799560546875,55.87733840942383 L559.7899169921875,54.98824691772461 L561.0223388671875,54.42855453491211 L562.1982421875,54.207420349121094 L563.24560546875,54.32689666748047 L564.114990234375,54.78178787231445 L564.794677734375,55.5688591003418 L565.289794921875,56.642635345458984 L565.6203002929688,57.91361999511719 L565.8287353515625,59.2387809753418 L565.9710083007812,60.48383331298828 L566.114013671875,61.55204391479492 L566.3379516601562,62.395362854003906 L566.7282104492188,62.963077545166016 L567.35693359375,63.21794891357422 L568.2682495117188,63.11593246459961 L569.443115234375,62.65142822265625 L570.79052734375,61.85402297973633 L572.1823120117188,60.81175231933594 L573.482666015625,59.612571716308594 L574.5751953125,58.361907958984375 L575.3834228515625,57.14909744262695 L575.8521728515625,56.06279754638672 L575.9507446289062,55.170902252197266 L575.6795043945312,54.566715240478516 L575.080078125,54.31340789794922 L574.2214965820312,54.47750473022461 L573.2020263671875,55.073970794677734 L572.1509399414062,56.054813385009766 L571.2140502929688,57.32171630859375 L570.547607421875,58.7634391784668 L570.3056030273438,60.24271774291992 L570.5720825195312,61.65911102294922 L571.4560546875,62.88345718383789 L572.9352416992188,63.796260833740234 L574.8558349609375,64.3371353149414 L576.6080322265625,64.56401824951172 L577.8056030273438,64.59235382080078 M596.4251708984375,56.396427154541016 L596.50537109375,56.600425720214844 L596.606201171875,57.09809112548828 L596.6690673828125,57.9802131652832 L596.6071166992188,59.252685546875 L596.3782958984375,60.88034439086914 L595.984375,62.806671142578125 L595.445068359375,64.9327163696289 L594.8241577148438,67.14324188232422 L594.1895751953125,69.27571868896484 L593.5999755859375,71.1475830078125 L593.111572265625,72.62931823730469 L592.7513427734375,73.64171600341797 L592.5374755859375,74.14688873291016 L592.46728515625,74.13591766357422 L592.5315551757812,73.58893585205078 L592.724609375,72.49461364746094 L593.0537109375,70.9283218383789 L593.508544921875,69.00635528564453 L594.1038818359375,66.88493347167969 L594.8463134765625,64.70069885253906 L595.744384765625,62.54935836791992 L596.8133544921875,60.49973678588867 L598.0677490234375,58.6535530090332 L599.484619140625,57.09111404418945 L601.0279541015625,55.91041564941406 L602.647216796875,55.17328643798828 L604.2774047851562,54.897335052490234 L605.8426513671875,55.05268096923828 L607.2738037109375,55.59960174560547 L608.4686279296875,56.44902420043945 L609.3167114257812,57.51169967651367 L609.7249145507812,58.70553970336914 L609.627197265625,59.950382232666016 L608.98974609375,61.153358459472656 L607.8554077148438,62.25538635253906 L606.30126953125,63.18095397949219 L604.4482421875,63.8643913269043 L602.4605102539062,64.28350830078125 L600.5313720703125,64.46029663085938 L598.8525390625,64.38459014892578 L597.5950927734375,64.09688568115234 L596.836669921875,63.63606643676758 L596.50146484375,63.17605972290039 L596.4295654296875,62.839569091796875 M610.0230712890625,61.551910400390625 L610.3139038085938,61.71000671386719 L610.885986328125,61.86760330200195 L611.7760009765625,61.9146842956543 L612.9174194335938,61.73918533325195 L614.261962890625,61.339107513427734 L615.6884765625,60.73929977416992 L617.0614624023438,59.98485565185547 L618.2598876953125,59.117340087890625 L619.1995849609375,58.1903076171875 L619.810791015625,57.27399444580078 L620.0739135742188,56.436500549316406 L619.9622802734375,55.75025939941406 L619.4637451171875,55.30377960205078 L618.582763671875,55.188194274902344 L617.378662109375,55.47513961791992 L615.9603271484375,56.177467346191406 L614.5120849609375,57.23316955566406 L613.2368774414062,58.53248977661133 L612.3111572265625,59.96046447753906 L611.858154296875,61.39529037475586 L611.95166015625,62.72895431518555 L612.6265258789062,63.84803009033203 L613.8731079101562,64.64407348632812 L615.6480712890625,65.03478240966797 L617.835205078125,64.99390411376953 L620.2674560546875,64.53987884521484 L622.7452392578125,63.750911712646484 L625.073974609375,62.72486877441406 L627.0882568359375,61.559635162353516 L628.6973876953125,60.343135833740234 L629.8610229492188,59.173526763916016 L630.5940551757812,58.136314392089844 L630.9791870117188,57.31459045410156 L631.1290283203125,56.76224136352539 L631.1600341796875,56.52601623535156 L631.136962890625,56.641448974609375 L631.0767211914062,57.159767150878906 L630.9544677734375,58.09223556518555 L630.773193359375,59.38124465942383 L630.5667114257812,60.89405822753906 L630.3930053710938,62.468772888183594 L630.28173828125,63.91455078125 L630.2459106445312,65.07955932617188 L630.2660522460938,65.885986328125 L630.3160400390625,66.30623626708984 L630.3687744140625,66.34945678710938 L630.42041015625,66.04666137695312 L630.4926147460938,65.40238952636719 L630.6298828125,64.43232727050781 L630.886474609375,63.22377014160156 L631.3095703125,61.889869689941406 L631.90966796875,60.53873825073242 L632.6905517578125,59.25870132446289 L633.6500244140625,58.101200103759766 L634.7691650390625,57.10282897949219 L636.043212890625,56.31017303466797 L637.4176025390625,55.760189056396484 L638.7907104492188,55.449127197265625 L639.8779296875,55.32136154174805 L640.5458984375,55.29970932006836 M648.8828125,45.0 L648.6802978515625,45.37176513671875 L648.316162109375,46.13045120239258 L647.8040771484375,47.32596969604492 L647.2129516601562,48.884422302246094 L646.569091796875,50.748046875 L645.928955078125,52.8475227355957 L645.320556640625,55.11859130859375 L644.7823486328125,57.471744537353516 L644.3514404296875,59.79610061645508 L644.068359375,61.95383834838867 L643.9483642578125,63.82681655883789 L644.0343017578125,65.28429412841797 L644.3214111328125,66.24646759033203 L644.7672119140625,66.6961898803711 L645.2008056640625,66.78646850585938 L645.510986328125,66.70429992675781 M649.5340576171875,56.77845001220703 L649.64208984375,56.937923431396484 L649.832763671875,57.324214935302734 L650.093505859375,57.98262405395508 L650.3909912109375,58.86427688598633 L650.731689453125,59.86063003540039 L651.123291015625,60.844844818115234 L651.6024169921875,61.7113151550293 L652.2113037109375,62.382057189941406 L653.0006103515625,62.792884826660156 L654.0218505859375,62.89372634887695 L655.2991943359375,62.65141296386719 L656.79638671875,62.079288482666016 L658.4202880859375,61.23185348510742 L660.0443115234375,60.21268081665039 L661.5169677734375,59.153900146484375 L662.7247314453125,58.194862365722656 L663.616943359375,57.430328369140625 L664.164794921875,56.931724548339844 L664.34912109375,56.733951568603516 L664.1663818359375,56.87604522705078 L663.5693359375,57.413108825683594 L662.5614013671875,58.393619537353516 L661.2158203125,59.80011749267578 L659.6290283203125,61.58072280883789 L657.924072265625,63.64985656738281 L656.2216796875,65.90963745117188 L654.6090087890625,68.26883697509766 L653.181640625,70.64852142333984 L652.026611328125,72.89515686035156 L651.2027587890625,74.8502426147461 L650.726806640625,76.24169158935547 L650.5242919921875,77.00855255126953 M678.7774658203125,52.43844985961914 L678.7275390625,52.033348083496094 L678.5263671875,51.476097106933594 L678.0814208984375,50.91245651245117 L677.3280029296875,50.54756546020508 L676.256103515625,50.41691589355469 L674.9041748046875,50.54966735839844 L673.3660888671875,50.94384765625 L671.806884765625,51.620391845703125 L670.439697265625,52.560386657714844 L669.46484375,53.70661163330078 L669.02197265625,54.98910140991211 L669.1639404296875,56.34759521484375 L669.84716796875,57.7374153137207 L670.9932861328125,59.13948059082031 L672.4693603515625,60.54264450073242 L674.107421875,61.930206298828125 L675.716552734375,63.25900650024414 L677.1043701171875,64.46868896484375 L678.1077880859375,65.52182006835938 L678.632080078125,66.3955078125 L678.623046875,67.093994140625 L678.0546875,67.6310806274414 L676.9154052734375,68.00396728515625 L675.218017578125,68.19056701660156 L673.0440673828125,68.19298553466797 L670.56005859375,68.01356506347656 L668.0010986328125,67.7016372680664 L665.6231689453125,67.28181457519531 L663.6710205078125,66.8014907836914 L662.2784423828125,66.28694915771484 L661.47705078125,65.86043548583984 L661.1417236328125,65.58100128173828 M687.5970458984375,48.00909423828125 L687.5377197265625,48.16786193847656 L687.40478515625,48.58088684082031 L687.181640625,49.33576202392578 L686.862548828125,50.449745178222656 L686.4498291015625,51.90371322631836 L685.9337158203125,53.65419387817383 L685.3404541015625,55.644081115722656 L684.699462890625,57.794639587402344 L684.08203125,60.00229263305664 L683.5540771484375,62.13844680786133 L683.1844482421875,64.09962463378906 L683.0791015625,65.76817321777344 L683.3233642578125,67.04778289794922 L683.9132080078125,67.88493347167969 L684.5849609375,68.31820678710938 L685.10888671875,68.46223449707031 M696.5792236328125,58.730281829833984 L696.491943359375,58.373844146728516 L696.2513427734375,57.92306900024414 L695.779296875,57.55438232421875 L695.011962890625,57.502967834472656 L693.927734375,57.821128845214844 L692.6102294921875,58.510860443115234 L691.2196044921875,59.49140167236328 L689.941650390625,60.68223190307617 L688.9742431640625,61.973167419433594 L688.4412841796875,63.25890350341797 L688.394287109375,64.43359375 L688.8411865234375,65.40203857421875 L689.732421875,66.05082702636719 L690.9765625,66.30972290039062 L692.443603515625,66.14214324951172 L693.968017578125,65.57096099853516 L695.3714599609375,64.6569595336914 L696.516845703125,63.50242233276367 L697.3160400390625,62.2034797668457 L697.7530517578125,60.89553451538086 L697.8758544921875,59.71620559692383 L697.7784423828125,58.782711029052734 L697.6072998046875,58.18428421020508 L697.4693603515625,57.899837493896484 M710.61328125,62.13579177856445 L710.6444091796875,61.66118621826172 L710.625,60.916683197021484 L710.4560546875,60.03249740600586 L710.038330078125,59.2326774597168 L709.3121337890625,58.600040435791016 L708.275146484375,58.215267181396484 L706.9559326171875,58.130088806152344 L705.4320068359375,58.408443450927734 L703.8135986328125,59.07097244262695 L702.269775390625,60.06295394897461 L700.9844970703125,61.280696868896484 L700.138671875,62.58115005493164 L699.8280029296875,63.8282585144043 L700.0853271484375,64.88922882080078 L700.87158203125,65.64619445800781 L702.1226806640625,66.00184631347656 L703.739501953125,65.89871215820312 L705.6134033203125,65.3135986328125 L707.568115234375,64.28907012939453 L709.462890625,62.88919448852539 L711.1707763671875,61.20989990234375 L712.6502685546875,59.35579299926758 L713.884765625,57.432640075683594 L714.897216796875,55.56214141845703 L715.6741943359375,53.895164489746094 L716.2398681640625,52.54624938964844 L716.608642578125,51.5908203125 L716.8123779296875,51.056297302246094 L716.8477783203125,50.9333381652832 L716.731689453125,51.22941207885742 L716.4515380859375,51.98312759399414 L716.024658203125,53.183494567871094 L715.4967041015625,54.76619338989258 L714.9154052734375,56.607276916503906 L714.3443603515625,58.54829025268555 L713.8814697265625,60.43781661987305 L713.60693359375,62.151607513427734 L713.58642578125,63.566993713378906 L713.8770751953125,64.60832977294922 L714.4893798828125,65.227783203125 L715.420654296875,65.40585327148438 L716.6207275390625,65.1464614868164 L718.0025634765625,64.48513793945312 L719.431396484375,63.51137161254883 L720.7620849609375,62.36967468261719 L721.862060546875,61.21580123901367 L722.6749267578125,60.196937561035156 L723.1793212890625,59.38639450073242 L723.425048828125,58.80567932128906 L723.4605712890625,58.5161247253418 L723.3109130859375,58.567623138427734 L722.976318359375,58.99913024902344 L722.5030517578125,59.82736587524414 L721.98046875,60.94131851196289 L721.560791015625,62.15386962890625 L721.3873291015625,63.3093147277832 L721.5452880859375,64.2557144165039 L722.0450439453125,64.89363861083984 L722.8541259765625,65.17326354980469 L723.9161376953125,65.0551986694336 L725.1656494140625,64.5446548461914 L726.5208740234375,63.712730407714844 L727.8837890625,62.668060302734375 L729.1451416015625,61.559547424316406 L730.189453125,60.53005599975586 L730.9432373046875,59.69745635986328 L731.390625,59.12397384643555 L731.5712890625,58.843257904052734 L731.563232421875,58.87233352661133 L731.4364013671875,59.243621826171875 L731.2205810546875,59.99082946777344 L730.9395751953125,61.125545501708984 L730.614013671875,62.60350799560547 L730.26416015625,64.37715911865234 L729.8956298828125,66.39472198486328 L729.4888916015625,68.60902404785156 L728.9866943359375,70.97215270996094 L728.31640625,73.40421295166016 L727.4254150390625,75.8038558959961 L726.3011474609375,78.05606079101562 L724.94384765625,80.04930877685547 L723.385498046875,81.67707824707031 L721.6695556640625,82.84534454345703 L719.8487548828125,83.47662353515625 L718.0230712890625,83.54263305664062 L716.364013671875,83.0491714477539 L715.04736328125,82.057861328125 L714.2452392578125,80.66288757324219 L714.0810546875,78.95557403564453 L714.6004638671875,77.03677368164062 L715.750732421875,75.02568054199219 L717.588623046875,72.99324035644531 L720.025146484375,71.04090118408203 L722.865478515625,69.26477813720703 L725.34033203125,67.93358612060547 L726.9853515625,67.14425659179688 M744.6680908203125,58.38864517211914 L744.4813232421875,58.11046600341797 L744.112548828125,57.74546432495117 L743.523193359375,57.415462493896484 L742.71142578125,57.28219223022461 L741.6572265625,57.39494705200195 L740.4150390625,57.77821350097656 L739.089599609375,58.4188232421875 L737.819091796875,59.30461883544922 L736.7451171875,60.374473571777344 L735.9698486328125,61.53709411621094 L735.5645751953125,62.71720886230469 L735.598388671875,63.82481384277344 L736.1416015625,64.78981018066406 L737.2161865234375,65.5425033569336 L738.7666015625,66.02892303466797 L740.6995849609375,66.18692779541016 L742.816162109375,66.0246810913086 L744.882080078125,65.58484649658203 L746.4766845703125,65.09903717041016 L747.4278564453125,64.73087310791016 M750.3934326171875,57.00429916381836 L750.743408203125,56.71896743774414 L751.430908203125,56.36183166503906 L752.44921875,56.04917526245117 L753.6859130859375,55.942718505859375 L755.0225830078125,56.04926300048828 L756.344482421875,56.39231872558594 L757.50048828125,56.912803649902344 L758.3956298828125,57.59087371826172 L758.91015625,58.34871292114258 L758.96630859375,59.14824676513672 L758.478759765625,59.95872497558594 L757.436279296875,60.78957748413086 L755.8714599609375,61.61820602416992 L753.9598388671875,62.42728042602539 L751.960205078125,63.17656707763672 L750.1705322265625,63.87159729003906 L748.7911376953125,64.52075958251953 L747.9522705078125,65.1557388305664 L747.674072265625,65.79701232910156 L747.9501953125,66.4246826171875 L748.80419921875,66.99447631835938 L750.25048828125,67.44901275634766 L752.210693359375,67.73999786376953 L754.5596923828125,67.80924987792969 L757.027587890625,67.63420867919922 L759.306396484375,67.21902465820312 L760.978515625,66.75794219970703 L761.9210205078125,66.39833068847656 M757.2509765625,59.94902038574219 L757.5830078125,59.98603057861328 L758.2781982421875,60.036865234375 L759.3543701171875,60.08190155029297 L760.754150390625,60.092437744140625 L762.3553466796875,60.06007766723633 L764.024169921875,60.00608444213867 L765.3829345703125,59.956485748291016 L766.243896484375,59.926387786865234 M782.5650634765625,54.869590759277344 L782.5616455078125,54.9424934387207 L782.4373779296875,55.23210144042969 L782.1090087890625,55.866249084472656 L781.5274658203125,56.89927673339844 L780.7427978515625,58.267356872558594 L779.8668212890625,59.869327545166016 L779.057861328125,61.58089065551758 L778.4447021484375,63.289459228515625 L778.1544189453125,64.8932113647461 L778.2548828125,66.27681732177734 L778.7789306640625,67.31007385253906 L779.7369384765625,67.9011001586914 L781.100341796875,67.97942352294922 L782.81494140625,67.54854583740234 L784.77783203125,66.6844482421875 L786.8323974609375,65.51399993896484 L788.815673828125,64.17932891845703 L790.57666015625,62.839176177978516 L791.9901123046875,61.61592483520508 L792.9971923828125,60.613407135009766 L793.5643310546875,59.91347122192383 L793.699951171875,59.56881332397461 L793.452880859375,59.602577209472656 L792.88037109375,60.025142669677734 L792.0736083984375,60.81751251220703 L791.1728515625,61.90098571777344 L790.3255615234375,63.160675048828125 L789.7552490234375,64.43090057373047 L789.617919921875,65.53630828857422 L789.9578857421875,66.3523178100586 L790.4951171875,66.83421325683594 L790.9736328125,67.03580474853516 M802.5606689453125,50.374351501464844 L802.54638671875,50.393733978271484 L802.50439453125,50.62722396850586 L802.404541015625,51.222686767578125 L802.1907958984375,52.249454498291016 L801.8148193359375,53.62942123413086 L801.2647705078125,55.24285125732422 L800.598388671875,56.99008560180664 L799.897216796875,58.818206787109375 L799.24609375,60.674747467041016 L798.6932373046875,62.482444763183594 L798.26318359375,64.14964294433594 L797.9764404296875,65.5310287475586 L797.8631591796875,66.519287109375 L797.9228515625,67.07650756835938 L798.0631103515625,67.28559112548828 L798.2000732421875,67.29197692871094 M795.553955078125,60.3687629699707 L795.7279052734375,60.3140983581543 L796.1981201171875,60.21407699584961 L797.060302734375,60.07338333129883 L798.3538818359375,59.903499603271484 L799.970947265625,59.71076583862305 L801.74853515625,59.531429290771484 L803.2237548828125,59.40119171142578 L804.1624755859375,59.32865905761719 M813.4947509765625,61.295570373535156 L813.017822265625,61.29777526855469 L812.207763671875,61.39408493041992 L811.0880126953125,61.663536071777344 L809.82373046875,62.161415100097656 L808.5321044921875,62.878536224365234 L807.36572265625,63.74742889404297 L806.475830078125,64.66407012939453 L805.998779296875,65.50248718261719 L805.96826171875,66.15097045898438 L806.3707275390625,66.5199203491211 L807.17578125,66.56484985351562 L808.3134765625,66.26873779296875 L809.695556640625,65.65630340576172 L811.2081298828125,64.77887725830078 L812.733642578125,63.72871780395508 L814.1624755859375,62.599998474121094 L815.4140625,61.50929260253906 L816.416259765625,60.554603576660156 L817.134033203125,59.80210494995117 L817.5618896484375,59.30820083618164 L817.6995849609375,59.11265182495117 L817.5740966796875,59.23680114746094 L817.2227783203125,59.72269821166992 L816.68505859375,60.585975646972656 L816.0562744140625,61.7548713684082 L815.4697265625,63.11310958862305 L815.0645751953125,64.4917221069336 L814.9969482421875,65.71479034423828 L815.3974609375,66.6459732055664 L816.3380126953125,67.2205581665039 L817.827880859375,67.41212463378906 L819.86767578125,67.20286560058594 L822.30322265625,66.6348648071289 L824.8922119140625,65.79756927490234 L827.0103759765625,64.99266815185547 L828.3359375,64.42948150634766 M835.3609619140625,60.14132308959961 L835.346435546875,60.09591293334961 L835.2769775390625,60.13459014892578 L835.0850830078125,60.37224197387695 L834.7169189453125,60.91313552856445 L834.15576171875,61.756126403808594 L833.4295654296875,62.843360900878906 L832.60888671875,64.05461883544922 L831.8111572265625,65.24638366699219 L831.1331787109375,66.28620147705078 L830.6583251953125,67.0733642578125 L830.431396484375,67.52761840820312 L830.4412841796875,67.5953140258789 L830.6822509765625,67.24504089355469 L831.143798828125,66.46664428710938 L831.8253173828125,65.32178497314453 L832.708984375,63.9222526550293 L833.7681884765625,62.396339416503906 L834.9527587890625,60.868446350097656 L836.2158203125,59.46503448486328 L837.492919921875,58.28519821166992 L838.7479248046875,57.425533294677734 L839.939453125,56.927085876464844 L841.0489501953125,56.79142761230469 L842.0655517578125,57.00676727294922 L842.9534912109375,57.567562103271484 L843.64501953125,58.467018127441406 L844.0858154296875,59.681358337402344 L844.2291259765625,61.11235427856445 L844.088134765625,62.6402587890625 L843.740966796875,64.1315689086914 L843.304443359375,65.4651870727539 L842.8900146484375,66.5585708618164 L842.57861328125,67.37069702148438 L842.3836669921875,67.88887786865234 L842.288330078125,68.15805053710938 L842.2530517578125,68.25773620605469 M855.7391357421875,60.399314880371094 L855.6064453125,60.23810577392578 L855.3060302734375,60.04758834838867 L854.772216796875,59.943115234375 L853.9591064453125,60.08486557006836 L852.8529052734375,60.5416259765625 L851.52783203125,61.337772369384766 L850.1524658203125,62.40452194213867 L848.9432373046875,63.625160217285156 L848.0972900390625,64.85493469238281 L847.7208251953125,65.94422149658203 L847.8306884765625,66.76935577392578 L848.40283203125,67.26599884033203 L849.41796875,67.3868408203125 L850.8114013671875,67.10955047607422 L852.483154296875,66.46398162841797 L854.2806396484375,65.50628662109375 L856.0089111328125,64.32103729248047 L857.5093994140625,63.03102493286133 L858.6944580078125,61.76356506347656 L859.5277099609375,60.61699295043945 L860.0445556640625,59.69118881225586 L860.2950439453125,59.05514144897461 L860.3231201171875,58.747127532958984 L860.1405029296875,58.81394577026367 L859.761962890625,59.31109619140625 L859.2303466796875,60.239830017089844 L858.6309814453125,61.53767776489258 L858.088623046875,63.066383361816406 L857.7548828125,64.65644073486328 L857.72216796875,66.1505126953125 L858.0450439453125,67.44636535644531 L858.81103515625,68.43307495117188 L859.987060546875,69.02964782714844 L861.485107421875,69.21725463867188 L862.853515625,69.14910125732422 L863.7874755859375,68.99304962158203 " fill="none" stroke="black" stroke-linecap="round" stroke-width="1" /><path d="M0,0 M358.4237365722656,117.6224136352539 L358.4208068847656,118.23898315429688 L358.4194030761719,119.35234832763672 L358.4011535644531,120.88644409179688 L358.3579406738281,122.59284973144531 L358.289794921875,124.27731323242188 L358.1929931640625,125.74463653564453 L358.0951843261719,126.87645721435547 L358.035888671875,127.62416076660156 L357.9999694824219,127.97269439697266 L357.9735107421875,127.94263458251953 L357.9443359375,127.49816131591797 L357.9388732910156,126.58787536621094 L358.0330810546875,125.22322082519531 L358.3043212890625,123.5447006225586 L358.80206298828125,121.73700714111328 L359.5384216308594,119.98527526855469 L360.480224609375,118.41731262207031 L361.5687255859375,117.13169860839844 L362.7254943847656,116.22053527832031 L363.84527587890625,115.79972839355469 L364.8512878417969,115.94322967529297 L365.7001647949219,116.65115356445312 L366.35711669921875,117.84049987792969 L366.82037353515625,119.37130737304688 L367.1133117675781,121.03326416015625 L367.27197265625,122.61235046386719 L367.33453369140625,123.93272399902344 L367.3736267089844,124.88204193115234 L367.4305725097656,125.39608001708984 L367.56158447265625,125.4423828125 L367.8305969238281,124.99114227294922 L368.3056335449219,124.04467010498047 L369.0215759277344,122.70061492919922 L370.01263427734375,121.134521484375 L371.25640869140625,119.54310607910156 L372.69476318359375,118.10662078857422 L374.2264404296875,116.9577865600586 L375.75634765625,116.18187713623047 L377.199951171875,115.86531829833984 L378.49713134765625,116.0572280883789 L379.60601806640625,116.75814056396484 L380.4928283691406,117.90968322753906 L381.0975036621094,119.3772201538086 L381.428955078125,121.02195739746094 L381.5511169433594,122.68218994140625 L381.54681396484375,124.18142700195312 L381.513427734375,125.37920379638672 L381.5696716308594,126.10548400878906 L381.7531433105469,126.26618957519531 L382.1036071777344,125.94116973876953 L382.4883117675781,125.4355697631836 L382.7857360839844,125.00459289550781 M391.10968017578125,117.65435791015625 L390.9096374511719,117.4530029296875 L390.5022888183594,117.22386169433594 L389.8557434082031,117.12286376953125 L389.0277099609375,117.35818481445312 L388.08746337890625,118.03099822998047 L387.1392517089844,119.13048553466797 L386.30828857421875,120.5443344116211 L385.75140380859375,122.12155151367188 L385.5951232910156,123.67562866210938 L385.9444274902344,125.03742980957031 L386.8156433105469,126.06780242919922 L388.1396789550781,126.65736389160156 L389.7887268066406,126.73111724853516 L391.5953674316406,126.28014373779297 L393.38037109375,125.33808898925781 L394.97406005859375,124.00875091552734 L396.2232666015625,122.44584655761719 L397.0317687988281,120.84552001953125 L397.35150146484375,119.36841583251953 L397.18792724609375,118.1412124633789 L396.62176513671875,117.20833587646484 L395.7745666503906,116.583251953125 L394.7897033691406,116.2532730102539 L393.8541259765625,116.22665405273438 L393.0992126464844,116.48271179199219 L392.6375732421875,116.99437713623047 L392.54217529296875,117.6659927368164 L392.8562316894531,118.3651123046875 L393.60833740234375,118.92572784423828 L394.81378173828125,119.21040344238281 L396.3982238769531,119.13250732421875 L398.2608642578125,118.71794891357422 L400.221435546875,118.05996704101562 L402.0706481933594,117.31523132324219 L403.65289306640625,116.63700866699219 L404.8720703125,116.1362533569336 L405.7029113769531,115.89065551757812 L406.2054748535156,115.96832275390625 L406.4347839355469,116.4029312133789 L406.42340087890625,117.21713256835938 L406.20599365234375,118.36359405517578 L405.83837890625,119.72833251953125 L405.4172668457031,121.17947387695312 L405.0572509765625,122.59400939941406 L404.8287048339844,123.84112548828125 L404.768798828125,124.84691619873047 L404.8084716796875,125.5130615234375 L404.87603759765625,125.85187530517578 M405.9366455078125,107.61138153076172 L405.91717529296875,107.57012939453125 L405.9107971191406,107.53943634033203 L405.9315490722656,107.5430908203125 L405.9877624511719,107.59688568115234 L406.0697937011719,107.67086029052734 L406.173583984375,107.75216674804688 L406.2660217285156,107.81564331054688 L406.3331298828125,107.85514831542969 M419.1837158203125,114.66291809082031 L418.95013427734375,114.4813003540039 L418.49200439453125,114.25088500976562 L417.780029296875,114.08859252929688 L416.8227844238281,114.16986846923828 L415.609375,114.59260559082031 L414.1680603027344,115.40705871582031 L412.6197814941406,116.58102416992188 L411.15069580078125,118.02957153320312 L409.9842224121094,119.6217041015625 L409.2829284667969,121.23336029052734 L409.15435791015625,122.75051879882812 L409.6148681640625,124.07947540283203 L410.652099609375,125.12890625 L412.20123291015625,125.79421997070312 L414.15472412109375,125.9909896850586 L416.3400573730469,125.6866683959961 L418.58721923828125,124.88652038574219 L420.74261474609375,123.63958740234375 L422.68603515625,122.00025177001953 L424.3643798828125,120.0128402709961 L425.7703857421875,117.745849609375 L426.92218017578125,115.31716918945312 L427.84857177734375,112.86825561523438 L428.57415771484375,110.56572723388672 L429.07147216796875,108.56836700439453 L429.354248046875,106.97988891601562 L429.469970703125,105.8364028930664 L429.50091552734375,105.16722106933594 L429.50933837890625,105.0 L429.48773193359375,105.3805923461914 L429.3787841796875,106.39453125 L429.1585998535156,108.05436706542969 L428.8565979003906,110.24210357666016 L428.55303955078125,112.76239776611328 L428.31988525390625,115.36902618408203 L428.1653137207031,117.82101440429688 L428.0757141113281,119.95005798339844 L428.04150390625,121.65247344970703 L428.04736328125,122.88134765625 L428.1102294921875,123.63794708251953 L428.25738525390625,123.92050170898438 L428.54681396484375,123.72510528564453 L429.0590515136719,123.05415344238281 L429.8779296875,121.9798583984375 L431.0101318359375,120.66150665283203 L432.40167236328125,119.305419921875 L433.9350891113281,118.08731842041016 L435.5107421875,117.1492691040039 L437.03216552734375,116.57817840576172 L438.43719482421875,116.44355773925781 L439.64935302734375,116.79081726074219 L440.5744323730469,117.6318130493164 L441.1575622558594,118.8945541381836 L441.4259338378906,120.46417236328125 L441.4403381347656,122.15248107910156 L441.37640380859375,123.75476837158203 L441.385009765625,125.07131958007812 L441.5514221191406,125.99066162109375 L441.79638671875,126.49334716796875 L442.0226745605469,126.69039916992188 M449.385986328125,109.68804931640625 L449.34539794921875,109.60597229003906 L449.30718994140625,109.69960021972656 L449.2641906738281,110.18603515625 L449.19879150390625,111.23509216308594 L449.06341552734375,112.8038101196289 L448.84979248046875,114.74027252197266 L448.61358642578125,116.83990478515625 L448.4374084472656,118.8975601196289 L448.37713623046875,120.73995971679688 L448.45050048828125,122.21800994873047 L448.6354675292969,123.21330261230469 L448.9065246582031,123.64249420166016 L449.27191162109375,123.46871185302734 L449.7484436035156,122.70055389404297 L450.32891845703125,121.42247009277344 L450.97247314453125,119.79234313964844 L451.6159362792969,118.02732849121094 L452.2009582519531,116.3260726928711 L452.69921875,114.84404754638672 L453.11712646484375,113.67346954345703 L453.4709167480469,112.87748718261719 L453.7642517089844,112.50460815429688 L453.99530029296875,112.59092712402344 L454.1667785644531,113.14722442626953 L454.2806091308594,114.14330291748047 L454.376953125,115.48493957519531 L454.53131103515625,117.04487609863281 L454.8051452636719,118.67378234863281 L455.23211669921875,120.21891784667969 L455.79925537109375,121.57084655761719 L456.44366455078125,122.65826416015625 L457.10504150390625,123.4367904663086 L457.762939453125,123.86460876464844 L458.4224853515625,123.89915466308594 L459.10626220703125,123.4759521484375 L459.81890869140625,122.56196594238281 L460.54095458984375,121.18096160888672 L461.23406982421875,119.43785858154297 L461.8668212890625,117.46910858154297 L462.4051513671875,115.43949127197266 L462.8428955078125,113.48810577392578 L463.18377685546875,111.74808502197266 L463.44049072265625,110.3111572265625 L463.65081787109375,109.27799224853516 L463.8536376953125,108.68559265136719 L464.06256103515625,108.50658416748047 L464.2437438964844,108.56875610351562 L464.368896484375,108.71054077148438 M471.3509521484375,114.52510833740234 L470.8154296875,114.41449737548828 L469.93634033203125,114.34879302978516 L468.78790283203125,114.47034454345703 L467.56707763671875,114.92280578613281 L466.33477783203125,115.74537658691406 L465.17291259765625,116.89350128173828 L464.17266845703125,118.25260162353516 L463.4518737792969,119.68181610107422 L463.0832214355469,121.0455322265625 L463.099365234375,122.22200012207031 L463.47705078125,123.1276626586914 L464.17791748046875,123.69053649902344 L465.17315673828125,123.85603332519531 L466.38671875,123.5789794921875 L467.7207946777344,122.86183166503906 L469.0561828613281,121.75262451171875 L470.2626953125,120.35835266113281 L471.2568359375,118.81587982177734 L472.0078125,117.28323364257812 L472.50958251953125,115.9264144897461 L472.792724609375,114.86930084228516 L472.9146423339844,114.15802001953125 L472.94415283203125,113.80271911621094 L472.9439392089844,113.7930908203125 L472.941650390625,114.13803100585938 L472.9544677734375,114.90380096435547 L472.9819641113281,116.071533203125 L473.0603332519531,117.57854461669922 L473.23260498046875,119.2762222290039 L473.516845703125,120.96895599365234 L473.8084716796875,122.28224182128906 L474.0308837890625,123.08116149902344 M480.1054382324219,116.30367279052734 L479.9864501953125,116.57279968261719 L479.7835693359375,117.18275451660156 L479.50640869140625,118.17909240722656 L479.18585205078125,119.45555877685547 L478.86077880859375,120.82453155517578 L478.5689697265625,122.06282043457031 L478.34356689453125,123.01377868652344 L478.2191162109375,123.6187973022461 L478.18115234375,123.85533905029297 L478.1966552734375,123.699951171875 L478.2779541015625,123.11292266845703 L478.44140625,122.06155395507812 L478.7185974121094,120.6098403930664 L479.1238708496094,118.9242172241211 L479.64068603515625,117.18779754638672 L480.2548522949219,115.56453704833984 L480.9874267578125,114.16429138183594 L481.84405517578125,113.03520965576172 L482.8271789550781,112.20105743408203 L483.9488525390625,111.70563507080078 L485.17169189453125,111.54414367675781 L486.43072509765625,111.67942810058594 L487.4615478515625,111.93891143798828 L488.1148986816406,112.17481994628906 M496.4031982421875,115.11507415771484 L496.151611328125,114.81126403808594 L495.64752197265625,114.42921447753906 L494.841796875,114.14287567138672 L493.77069091796875,114.1868896484375 L492.48651123046875,114.62271118164062 L491.1319580078125,115.41544342041016 L489.9012145996094,116.43405151367188 L489.00531005859375,117.51881408691406 L488.5892333984375,118.49588775634766 L488.71392822265625,119.22899627685547 L489.3589782714844,119.61590576171875 L490.4715576171875,119.59590911865234 L491.9494934082031,119.16119384765625 L493.6363525390625,118.3591079711914 L495.3404541015625,117.29373168945312 L496.84417724609375,116.13668823242188 L497.9933166503906,115.07096099853516 L498.74359130859375,114.23180389404297 L499.13287353515625,113.69347381591797 L499.24005126953125,113.48939514160156 L499.1648254394531,113.64657592773438 L498.9547119140625,114.23301696777344 L498.6493835449219,115.30953979492188 L498.2833557128906,116.8426513671875 L497.898681640625,118.73871612548828 L497.54071044921875,120.8644027709961 L497.2480773925781,123.0719985961914 L497.02667236328125,125.2647476196289 L496.8403015136719,127.36715698242188 L496.6102294921875,129.26763916015625 L496.2583923339844,130.89385986328125 L495.7099609375,132.18508911132812 L494.9194641113281,133.0861053466797 L493.8932800292969,133.5926513671875 L492.67767333984375,133.72882080078125 L491.3428649902344,133.50685119628906 L490.001708984375,132.9763946533203 L488.76837158203125,132.1865234375 L487.74273681640625,131.18582153320312 L487.0819396972656,129.99371337890625 L486.90203857421875,128.6826629638672 L487.2192687988281,127.32886505126953 L487.750244140625,126.23050689697266 L488.23101806640625,125.54048156738281 M509.7033996582031,116.85696411132812 L509.61083984375,116.5665283203125 L509.3927001953125,116.13057708740234 L508.98095703125,115.64774322509766 L508.3447265625,115.30223846435547 L507.45172119140625,115.19268798828125 L506.30816650390625,115.41443634033203 L504.9607849121094,115.97940063476562 L503.5296630859375,116.88619232177734 L502.17584228515625,118.05833435058594 L501.10052490234375,119.37273406982422 L500.4388427734375,120.67704772949219 L500.24090576171875,121.8378677368164 L500.4884338378906,122.72022247314453 L501.13165283203125,123.24249267578125 L502.12579345703125,123.3534164428711 L503.4290771484375,123.02967071533203 L504.9549560546875,122.292724609375 L506.5589599609375,121.22039794921875 L508.0771484375,119.91436767578125 L509.3717956542969,118.5420913696289 L510.358154296875,117.27603912353516 L511.0267639160156,116.245849609375 L511.420654296875,115.51829528808594 L511.60107421875,115.11422729492188 L511.64544677734375,115.01351928710938 L511.6156311035156,115.24910736083984 L511.5531005859375,115.85530853271484 L511.4874267578125,116.81835174560547 L511.44720458984375,118.05361938476562 L511.4720458984375,119.42910766601562 L511.61590576171875,120.79395294189453 L511.973388671875,122.0049819946289 L512.5989990234375,122.94184875488281 L513.4723510742188,123.52290344238281 L514.3073120117188,123.78358459472656 L514.9002685546875,123.83238220214844 M524.4498901367188,115.93903350830078 L524.2595825195312,115.71083068847656 L523.875244140625,115.43126678466797 L523.2495727539062,115.21653747558594 L522.3841552734375,115.2298583984375 L521.2899780273438,115.51860809326172 L520.06640625,116.12562561035156 L518.8523559570312,117.03318786621094 L517.8162841796875,118.19268798828125 L517.106689453125,119.49459838867188 L516.82177734375,120.80977630615234 L517.01904296875,122.00074005126953 L517.73583984375,122.974365234375 L518.9562377929688,123.6452865600586 L520.599853515625,123.93787384033203 L522.538330078125,123.80390930175781 L524.5972900390625,123.2186508178711 L526.6102294921875,122.19197082519531 L528.4556884765625,120.77674865722656 L530.0643920898438,119.05294036865234 L531.4014892578125,117.11907958984375 L532.46484375,115.09382629394531 L533.25146484375,113.07915496826172 L533.7740478515625,111.18128204345703 L534.0606079101562,109.510009765625 L534.1629028320312,108.15711975097656 L534.1502685546875,107.17718505859375 L534.0904541015625,106.60509490966797 L534.03076171875,106.46932220458984 L533.9776611328125,106.81756591796875 L533.8976440429688,107.71373748779297 L533.7531127929688,109.164306640625 L533.538818359375,111.07542419433594 L533.2678833007812,113.2771224975586 L533.0027465820312,115.5616683959961 L532.7894287109375,117.71180725097656 L532.6558837890625,119.54210662841797 L532.606201171875,120.93388366699219 L532.6503295898438,121.8189926147461 L532.7965087890625,122.18574523925781 L533.1016235351562,122.05599975585938 L533.625244140625,121.4638900756836 L534.4248046875,120.47254180908203 L535.4957275390625,119.22423553466797 L536.8065795898438,117.88553619384766 L538.2601318359375,116.62277221679688 L539.728515625,115.56541442871094 L541.0906982421875,114.79833984375 L542.2583618164062,114.37614440917969 L543.1853637695312,114.36027526855469 L543.9146728515625,114.79291534423828 L544.4834594726562,115.67646026611328 L544.90673828125,116.94377899169922 L545.199462890625,118.45867156982422 L545.389892578125,120.04859924316406 L545.5098876953125,121.56354522705078 L545.6430053710938,122.87698364257812 L545.8391723632812,123.90336608886719 L546.1026611328125,124.59537506103516 L546.3509521484375,124.96680450439453 L546.531005859375,125.10096740722656 M562.5902709960938,114.78187561035156 L562.61376953125,114.76226806640625 L562.64990234375,114.87423706054688 L562.6712646484375,115.25015258789062 L562.64306640625,115.9934310913086 L562.5433349609375,117.09098052978516 L562.377685546875,118.45232391357422 L562.1959228515625,119.93257904052734 L562.0765380859375,121.3858642578125 L562.0770874023438,122.67607879638672 L562.2444458007812,123.69873046875 L562.5857543945312,124.37983703613281 L563.0809326171875,124.65340423583984 L563.718017578125,124.47911834716797 L564.4736328125,123.8521499633789 L565.2999877929688,122.83761596679688 L566.1492919921875,121.55974578857422 L566.9713745117188,120.19796752929688 L567.7196044921875,118.9223861694336 L568.3780517578125,117.86360168457031 L568.9335327148438,117.09275817871094 L569.3650512695312,116.6541748046875 L569.6613159179688,116.54823303222656 L569.8301391601562,116.78889465332031 L569.9141235351562,117.39380645751953 L569.9647216796875,118.34138488769531 L570.04736328125,119.54176330566406 L570.203857421875,120.85852813720703 L570.4559326171875,122.12065124511719 L570.7859497070312,123.17292785644531 L571.2059326171875,123.9127197265625 L571.716796875,124.2677993774414 L572.3563232421875,124.17967224121094 L573.1458740234375,123.62498474121094 L574.0801391601562,122.62954711914062 L575.0845947265625,121.26597595214844 L576.0792236328125,119.66432189941406 L576.9723510742188,117.98907470703125 L577.7127075195312,116.39117431640625 L578.2703857421875,114.99882507324219 L578.6599731445312,113.90911102294922 L578.9083251953125,113.1651382446289 L579.0576782226562,112.75228881835938 L579.1383666992188,112.59060668945312 L579.1785888671875,112.56694793701172 M584.02197265625,114.44452667236328 L584.060791015625,114.48709106445312 L584.091552734375,114.69782257080078 L584.0616455078125,115.19910430908203 L583.9049072265625,116.06217956542969 L583.5946655273438,117.24281311035156 L583.155517578125,118.64262390136719 L582.6668701171875,120.1355972290039 L582.2197265625,121.54586791992188 L581.8883056640625,122.71385955810547 L581.6990356445312,123.52101135253906 L581.6236572265625,123.94577026367188 L581.6131591796875,124.08533477783203 M584.9412841796875,106.79531860351562 L584.9861450195312,106.77405548095703 L585.1175537109375,106.84140014648438 L585.283447265625,106.96426391601562 L585.431396484375,107.10956573486328 M595.3233642578125,115.18777465820312 L595.134033203125,115.04259490966797 L594.7025146484375,114.84126281738281 L593.9791259765625,114.6548843383789 L593.003173828125,114.57549285888672 L591.8914184570312,114.62574768066406 L590.8088989257812,114.80401611328125 L589.9295654296875,115.1148452758789 L589.406005859375,115.54872131347656 L589.3428344726562,116.11541748046875 L589.7781372070312,116.8165512084961 L590.6812744140625,117.62782287597656 L591.943603515625,118.5259017944336 L593.397705078125,119.51245880126953 L594.8619995117188,120.55532836914062 L596.1727294921875,121.62651062011719 L597.20947265625,122.6875 L597.8749389648438,123.66343688964844 L598.1137084960938,124.50248718261719 L597.8778076171875,125.17752838134766 L597.17041015625,125.65978240966797 L596.0333251953125,125.93311309814453 L594.5741577148438,125.99850463867188 L592.9623413085938,125.87167358398438 L591.4193115234375,125.55595397949219 L590.1324462890625,125.07389831542969 L589.2421875,124.47189331054688 L588.7572021484375,123.92582702636719 L588.573486328125,123.54939270019531 M603.4554443359375,114.36273193359375 L603.4779663085938,114.68462371826172 L603.4703979492188,115.30828857421875 L603.396484375,116.25297546386719 L603.21533203125,117.43113708496094 L602.9418334960938,118.77043914794922 L602.593505859375,120.16434478759766 L602.2296142578125,121.50341796875 L601.918212890625,122.65663146972656 L601.704833984375,123.54232025146484 L601.5942993164062,124.09556579589844 L601.577880859375,124.28018188476562 L601.6502685546875,124.06177520751953 L601.8387451171875,123.43206024169922 L602.1934204101562,122.41614532470703 L602.7418212890625,121.121826171875 L603.475830078125,119.68377685546875 L604.3665771484375,118.24422454833984 L605.4052734375,116.90387725830078 L606.5667724609375,115.76191711425781 L607.8414306640625,114.89827728271484 L609.1873779296875,114.37398529052734 L610.521240234375,114.22847747802734 L611.7570190429688,114.47759246826172 L612.8260498046875,115.09965515136719 L613.6590576171875,116.07231903076172 L614.2333984375,117.33969116210938 L614.5465698242188,118.80060577392578 L614.6236572265625,120.32093811035156 L614.547607421875,121.75675964355469 L614.4161376953125,122.97315216064453 L614.3173828125,123.898193359375 L614.3175659179688,124.48072052001953 L614.4593505859375,124.6982192993164 L614.7763671875,124.53266143798828 L615.3135986328125,123.98485565185547 L616.0808715820312,123.08802032470703 L617.0491943359375,121.95195770263672 L618.147705078125,120.68909454345703 L619.2843017578125,119.42140197753906 L620.35400390625,118.25763702392578 L621.2749633789062,117.28032684326172 L621.9797973632812,116.54813385009766 L622.4468994140625,116.12760162353516 L622.6817016601562,116.07319641113281 L622.712158203125,116.40424346923828 L622.562744140625,117.12162780761719 L622.277587890625,118.16404724121094 L621.90478515625,119.40864562988281 L621.52490234375,120.71377563476562 L621.1995849609375,121.96617889404297 L620.966552734375,123.06810760498047 L620.839599609375,123.93559265136719 L620.8055419921875,124.50007629394531 L620.8292236328125,124.72901916503906 L620.875244140625,124.7239761352539 L620.9130859375,124.62191772460938 M622.8792724609375,109.53401184082031 L622.94482421875,109.5614242553711 L623.095458984375,109.6973876953125 L623.2734375,109.88553619384766 L623.42138671875,110.0694808959961 M633.651611328125,115.67387390136719 L633.3104248046875,115.57267761230469 L632.69580078125,115.51355743408203 L631.8092041015625,115.6312255859375 L630.7462768554688,116.0611343383789 L629.5612182617188,116.83451843261719 L628.3966064453125,117.90960693359375 L627.4085693359375,119.17575073242188 L626.7774047851562,120.496826171875 L626.644287109375,121.74249267578125 L627.0538940429688,122.78754425048828 L627.9588623046875,123.5233154296875 L629.259765625,123.8907241821289 L630.8133544921875,123.85729217529297 L632.4733276367188,123.41199493408203 L634.095458984375,122.58223724365234 L635.51513671875,121.41895294189453 L636.593505859375,120.00530242919922 L637.240234375,118.49556732177734 L637.4569091796875,117.05663299560547 L637.343505859375,115.83172607421875 L637.0382080078125,114.91862487792969 L636.6866455078125,114.33055877685547 L636.4164428710938,114.02029418945312 L636.2647094726562,113.90327453613281 M643.6599731445312,114.62632751464844 L643.66552734375,114.6692123413086 L643.6327514648438,114.92002868652344 L643.5076904296875,115.52041625976562 L643.2427978515625,116.52891540527344 L642.8380737304688,117.86681365966797 L642.3826904296875,119.37110137939453 L642.017578125,120.85017395019531 L641.843505859375,122.15242767333984 L641.9182739257812,123.16268157958984 L642.2471923828125,123.77760314941406 L642.8038330078125,123.92681884765625 L643.587158203125,123.5752182006836 L644.5784301757812,122.74388122558594 L645.6824951171875,121.54779052734375 L646.781494140625,120.14649963378906 L647.75244140625,118.72403717041016 L648.4849243164062,117.44902801513672 L648.9719848632812,116.4437484741211 L649.2373046875,115.77484130859375 L649.3250732421875,115.50370025634766 L649.284912109375,115.66153717041016 L649.1522216796875,116.27151489257812 L648.95703125,117.29386138916016 L648.794921875,118.59487915039062 L648.7610473632812,119.97329711914062 L648.9478149414062,121.24752044677734 L649.385009765625,122.27301025390625 L650.0445556640625,122.96234130859375 L650.8831176757812,123.25442504882812 L651.8721313476562,123.08827209472656 L652.9876708984375,122.4545669555664 L654.187744140625,121.41073608398438 L655.36474609375,120.07744598388672 L656.3814697265625,118.58905029296875 L657.1353759765625,117.08711242675781 L657.570068359375,115.69380950927734 L657.7200927734375,114.53939056396484 L657.681884765625,113.69805145263672 L657.5468139648438,113.19546508789062 L657.3905639648438,113.0106201171875 L657.2733154296875,113.09681701660156 L657.1986083984375,113.39075469970703 L657.1622314453125,113.73187255859375 L657.1539306640625,113.99691772460938 M662.1279907226562,114.92915344238281 L662.140869140625,115.11426544189453 L662.15380859375,115.5290298461914 L662.16162109375,116.2272720336914 L662.1630859375,117.1658706665039 L662.1817016601562,118.25542449951172 L662.247314453125,119.3655776977539 L662.397705078125,120.3582763671875 L662.7202758789062,121.11161804199219 L663.2789916992188,121.53325653076172 L664.1341552734375,121.55398559570312 L665.2994384765625,121.1526870727539 L666.7244262695312,120.37641143798828 L668.31201171875,119.3430404663086 L669.9273681640625,118.22693634033203 L671.3705444335938,117.20703887939453 L672.509521484375,116.40345764160156 L673.2431640625,115.87594604492188 L673.538818359375,115.6612777709961 L673.4232177734375,115.79337310791016 L672.9298095703125,116.35130310058594 L672.0689697265625,117.40442657470703 L670.9217529296875,118.93812561035156 L669.5699462890625,120.8807601928711 L668.1278076171875,123.11553955078125 L666.708251953125,125.50653839111328 L665.401123046875,127.95030975341797 L664.24462890625,130.35377502441406 L663.263671875,132.61050415039062 L662.4632568359375,134.599609375 L661.843505859375,136.2029571533203 L661.4344482421875,137.2674560546875 L661.2235107421875,137.8119354248047 " fill="none" stroke="black" stroke-linecap="round" stroke-width="1" /></svg>