<?xml version="1.0" encoding="utf-8" ?>
<svg baseProfile="full" height="100%" version="1.1" viewBox="0,0,1000,120" width="100%" xmlns="http://www.w3.org/2000/svg" xmlns:ev="http://www.w3.org/2001/xml-events" xmlns:xlink="http://www.w3.org/1999/xlink"><defs /><rect fill="white" height="120" width="1000" x="0" y="0" /><path d="M0,0 M491.3150329589844,49.613914489746094 L490.8966979980469,49.42679977416992 L490.13848876953125,49.21242904663086 L489.058837890625,49.087852478027344 L487.8035888671875,49.18824005126953 L486.5170593261719,49.53851318359375 L485.3620910644531,50.097347259521484 L484.5195617675781,50.7800178527832 L484.1830749511719,51.509429931640625 L484.45928955078125,52.212154388427734 L485.36865234375,52.85068130493164 L486.82763671875,53.43806838989258 L488.64459228515625,54.01034927368164 L490.5814514160156,54.63848114013672 L492.3731384277344,55.359928131103516 L493.8039855957031,56.18703079223633 L494.7476806640625,57.08927917480469 L495.14215087890625,58.0070915222168 L494.9806823730469,58.86883544921875 L494.293701171875,59.61444854736328 L493.104736328125,60.173683166503906 L491.5058898925781,60.49671936035156 L489.66033935546875,60.548248291015625 L487.7742614746094,60.3322639465332 L486.10882568359375,59.845611572265625 L484.8968505859375,59.131290435791016 L484.2405700683594,58.26211166381836 L484.029296875,57.49070358276367 L484.06634521484375,56.97149658203125 M499.63946533203125,49.9503059387207 L499.65972900390625,50.36144256591797 L499.6739196777344,51.14990997314453 L499.66619873046875,52.322357177734375 L499.62847900390625,53.7572021484375 L499.5898742675781,55.36326599121094 L499.5677490234375,57.01996612548828 L499.5904846191406,58.6165885925293 L499.6794738769531,59.92495346069336 L499.8327941894531,60.73728942871094 L500.0332336425781,60.93328094482422 L500.21923828125,60.73262405395508 L500.3445739746094,60.40666961669922 M500.4920654296875,45.19445037841797 L500.5069885253906,45.13378143310547 L500.53436279296875,45.0672721862793 L500.5639953613281,45.01573944091797 L500.5856628417969,45.0 M505.8153991699219,55.98805618286133 L506.15789794921875,55.75935745239258 L506.8081970214844,55.24787902832031 L507.7374572753906,54.42177200317383 L508.801025390625,53.346710205078125 L509.86090087890625,52.133419036865234 L510.7694396972656,50.90630340576172 L511.4331359863281,49.781341552734375 L511.7754821777344,48.83650207519531 L511.73431396484375,48.15563201904297 L511.2992858886719,47.806488037109375 L510.4868469238281,47.86170959472656 L509.37109375,48.379852294921875 L508.1051940917969,49.38298034667969 L506.8933410644531,50.82762908935547 L505.93121337890625,52.59248733520508 L505.3979797363281,54.499305725097656 L505.402587890625,56.354736328125 L505.9872131347656,57.97774887084961 L507.1000671386719,59.220191955566406 L508.7000732421875,59.9405632019043 L510.62921142578125,60.072357177734375 L512.676513671875,59.662899017333984 L514.3463134765625,59.058658599853516 L515.3941040039062,58.548248291015625 M517.0908813476562,49.97755432128906 L517.139892578125,50.19758987426758 L517.2225341796875,50.72883987426758 L517.3080444335938,51.649993896484375 L517.3545532226562,52.924076080322266 L517.345458984375,54.438079833984375 L517.302490234375,56.00051498413086 L517.244873046875,57.42056655883789 L517.220947265625,58.516212463378906 L517.25146484375,59.134098052978516 L517.3687744140625,59.17914581298828 L517.62451171875,58.636043548583984 L518.07470703125,57.53603744506836 L518.7132568359375,56.026611328125 L519.5130004882812,54.29722213745117 L520.400390625,52.56758499145508 L521.2991333007812,51.04673767089844 L522.163330078125,49.91033172607422 L522.9638061523438,49.2791862487793 L523.6655883789062,49.23439407348633 L524.2347412109375,49.775733947753906 L524.65478515625,50.85194778442383 L524.9150390625,52.32674026489258 L525.0418090820312,53.99097442626953 L525.0778198242188,55.61111831665039 L525.0676879882812,56.978973388671875 L525.037109375,57.93482971191406 L525.0165405273438,58.394020080566406 L525.0310668945312,58.32365798950195 L525.1231689453125,57.700347900390625 L525.3405151367188,56.548789978027344 L525.7264404296875,55.010562896728516 L526.2937622070312,53.299285888671875 L527.0103149414062,51.64079284667969 L527.8336181640625,50.24595642089844 L528.7076416015625,49.23103713989258 L529.5910034179688,48.66895294189453 L530.4491577148438,48.6241340637207 L531.2438354492188,49.145503997802734 L531.9064331054688,50.21015167236328 L532.3863525390625,51.804100036621094 L532.6597900390625,53.76654052734375 L532.764404296875,55.87070083618164 L532.7706298828125,57.58845520019531 L532.7496948242188,58.66141891479492 M543.6636352539062,51.404354095458984 L543.4014282226562,51.1556510925293 L542.92138671875,50.819480895996094 L542.1959838867188,50.53240966796875 L541.2756958007812,50.52311706542969 L540.1761474609375,50.91914749145508 L538.9729614257812,51.7848014831543 L537.7871704101562,53.07632827758789 L536.7986450195312,54.65604019165039 L536.1485595703125,56.298709869384766 L535.9657592773438,57.78289031982422 L536.2980346679688,58.900638580322266 L537.1177978515625,59.508785247802734 L538.3278198242188,59.537322998046875 L539.7846069335938,58.98817825317383 L541.2916870117188,57.93395233154297 L542.6915893554688,56.529659271240234 L543.8624267578125,54.96790313720703 L544.7356567382812,53.453548431396484 L545.3062133789062,52.14384078979492 L545.6240234375,51.1453971862793 L545.74365234375,50.53955078125 L545.735595703125,50.391849517822266 L545.6515502929688,50.7521858215332 L545.5234375,51.658203125 L545.38232421875,53.043575286865234 L545.291015625,54.76182556152344 L545.3222045898438,56.64126968383789 L545.572509765625,58.464111328125 L546.1185302734375,60.036888122558594 L546.7328491210938,61.142799377441406 L547.2244873046875,61.7405891418457 " fill="none" stroke="black" stroke-linecap="round" stroke-width="1" /></svg>